<?xml version="1.0" encoding="UTF-8"?>
<!DOCTYPE svg PUBLIC "-//W3C//DTD SVG 1.1//EN" "http://www.w3.org/Graphics/SVG/1.1/DTD/svg11.dtd">
<!-- Creator: CorelDRAW -->
<svg xmlns="http://www.w3.org/2000/svg" xml:space="preserve" width="210mm" height="297mm" version="1.1" style="shape-rendering:geometricPrecision; text-rendering:geometricPrecision; image-rendering:optimizeQuality; fill-rule:evenodd; clip-rule:evenodd"
viewBox="0 0 21000 29700"
 xmlns:xlink="http://www.w3.org/1999/xlink"
 xmlns:xodm="http://www.corel.com/coreldraw/odm/2003">
 <defs>
  <style type="text/css">
   <![CDATA[
    .fil0 {fill:black;fill-rule:nonzero}
   ]]>
  </style>
 </defs>
 <g id="Capa_x0020_1">
  <metadata id="CorelCorpID_0Corel-Layer"/>
  <polygon class="fil0" points="1308.38,675.24 1308.38,5758.85 5794.75,5758.85 5794.75,3910.27 3356.04,3910.27 3356.04,675.24 "/>
  <path id="_1" class="fil0" d="M9420.82 675.24l0 2680.45c0,419.49 -149.31,554.58 -604.35,554.58l-270.17 0c-376.83,0 -547.47,-177.75 -547.47,-554.58l0 -2680.45 -2047.66 0 0 3263.47c0,1173.14 632.78,1820.14 1770.37,1820.14l1969.46 0c1144.7,0 1777.48,-647 1777.48,-1820.14l0 -3263.47 -2047.66 0z"/>
  <polygon id="_2" class="fil0" points="11752.88,675.24 11752.88,5758.85 13800.54,5758.85 13800.54,675.24 "/>
  <path id="_3" class="fil0" d="M15642.02 675.24c-1038.06,0 -1599.74,519.03 -1599.74,1471.76 0,924.29 533.24,1478.87 1429.1,1478.87l2488.48 0c99.54,0 149.3,49.77 149.3,142.2 0,92.43 -49.76,142.2 -149.3,142.2l-3775.38 0 0 1848.58 3988.67 0c1116.26,0 1713.5,-547.47 1713.5,-1571.3 0,-1016.72 -583.02,-1649.5 -1535.75,-1649.5l-2374.72 0c-99.54,0 -156.42,-56.88 -156.42,-142.2 0,-85.32 56.88,-142.2 156.42,-142.2l3697.17 0 0 -1578.41 -4031.33 0z"/>
 </g>
</svg>
